<svg height="512pt" viewBox="0 -8 512 512" width="512pt" xmlns="http://www.w3.org/2000/svg"><path d="m440 120-32 32h-64v-32zm0 0" fill="#5d9cec"/><path d="m504 120v32h-96l32-32zm0 0" fill="#e6e9ed"/><path d="m504 184v32h-56l32-32zm0 0" fill="#e6e9ed"/><path d="m480 184-32 32h-104v-32zm0 0" fill="#5d9cec"/><path d="m504 248v32h-112l32-32zm0 0" fill="#e6e9ed"/><path d="m424 248-32 32h-48v-32zm0 0" fill="#5d9cec"/><path d="m456 312-32 32h-80v-32zm0 0" fill="#5d9cec"/><path d="m504 312v32h-80l32-32zm0 0" fill="#e6e9ed"/><path d="m312 408v72c0 4.40625-3.601562 8-8 8h-120l48-64-16-16 24-32-16-16h40c26.558594 0 48 21.519531 48 48zm0 0" fill="#4a89dc"/><path d="m264 360h-32c26.558594 0 48 21.519531 48 48v72c0 4.40625-3.601562 8-8 8h32c4.398438 0 8-3.59375 8-8v-72c0-26.480469-21.441406-48-48-48zm0 0" fill="#3981d1"/><path d="m184 488h-16l30.878906-111.039062 9.121094-32.960938 32 32-24 32 16 16zm0 0" fill="#5d9cec"/><path d="m88 424 48 64h-120c-4.398438 0-8-3.59375-8-8v-72c0-26.480469 21.441406-48 48-48h40l-16 16 24 32zm0 0" fill="#4a89dc"/><path d="m121.121094 376.960938 30.878906 111.039062h-16l-48-64 16-16-24-32 32-32zm0 0" fill="#5d9cec"/><path d="m198.878906 376.960938-30.878906 111.039062h-16l-30.878906-111.039062 3.359375-.960938 35.519531-16 35.519531 16zm0 0" fill="#e6e9ed"/><path d="m160 336c17.039062 0 33.28125-3.59375 48-10v18l-9.121094 32.960938-3.359375-.960938-35.519531-16-35.519531 16-3.359375.960938-9.121094-32.960938v-18c14.71875 6.40625 30.960938 10 48 10zm0 0" fill="#f5f7fa"/><path d="m80 32.238281v79.761719c0 22.089844-17.921875 40-40 40v-80c0-22.078125 17.921875-40 40-40l.078125.167969c0 .070312-.078125.070312-.078125.070312zm0 0" fill="#da4453"/><path d="m304 152v128c0-31.511719-9.039062-55.441406-23.519531-73.511719-37.121094-46.25-110.160157-54.488281-160.480469-54.488281-22.078125 0-40-17.910156-40-40v-79.761719s.078125 0 .078125-.078125c22.882813-15.199218 50.320313-24.160156 79.921875-24.160156 79.519531 0 144 64.488281 144 144zm0 0" fill="#ed5565"/><path d="m160 8c-5.359375 0-10.625.390625-15.832031.960938 71.902343 8.046874 127.832031 68.992187 127.832031 143.039062v45.238281c2.976562 2.914063 5.839844 5.960938 8.480469 9.242188 14.480469 18.078125 23.519531 42.007812 23.519531 73.519531v-128c0-79.511719-64.480469-144-144-144zm0 0" fill="#da4453"/><path d="m280 205.953125c-37.257812-45.753906-109.878906-53.953125-160-53.953125-22.078125 0-40-17.910156-40-40 0 22.089844-17.921875 40-40 40v64c0 49.199219 29.601562 91.519531 72 110 14.71875 6.40625 30.960938 10 48 10s33.28125-3.59375 48-10c42.398438-18.480469 72-60.800781 72-110zm0 0" fill="#eac6bb"/><path d="m280 205.953125c-8.902344-10.9375-19.832031-19.714844-32-26.761719v36.808594c0 49.199219-29.601562 91.519531-72 110-10.023438 4.359375-20.800781 7.296875-32 8.808594 5.246094.695312 10.558594 1.191406 16 1.191406 17.039062 0 33.28125-3.59375 48-10 42.398438-18.480469 72-60.800781 72-110zm0 0" fill="#d3b1a9"/><path d="m8 416.023438c-4.425781 0-8-3.574219-8-8 0-30.886719 25.128906-56.015626 56.015625-56.015626 4.425781 0 8 3.578126 8 8 0 4.425782-3.574219 8-8 8-22.0625 0-40.015625 17.953126-40.015625 40.015626 0 4.425781-3.574219 8-8 8zm0 0"/><path d="m312 416.015625c-4.425781 0-8-3.574219-8-8 0-22.054687-17.945312-40-40-40-4.425781 0-8-3.574219-8-8 0-4.421875 3.574219-8 8-8 30.871094 0 56 25.128906 56 56 0 4.425781-3.574219 8-8 8zm0 0"/><path d="m95.992188 368.015625-39.976563-.007813c-4.421875 0-8-3.582031-8-8 0-4.421874 3.585937-8 8-8l39.976563.007813c4.421874 0 8 3.585937 8 8 0 4.425781-3.585938 8-8 8zm0 0"/><path d="m264 368.015625-39.992188-.007813c-4.421874 0-8-3.582031-8-8 0-4.421874 3.585938-8 8-8l39.992188.007813c4.425781 0 8 3.585937 8 8 0 4.425781-3.585938 8-8 8zm0 0"/><path d="m8.007812 488c-4.414062 0-7.9999995-3.574219-7.9999995-8l-.0078125-71.976562c0-4.414063 3.574219-8 8-8 4.414062 0 8 3.578124 8 8l.007812 71.976562c0 4.414062-3.574218 8-8 8zm0 0"/><path d="m16.007812 496c-8.824218 0-15.9999995-7.175781-15.9999995-16 0-4.425781 3.5781255-8 7.9999995-8 4.425782 0 8 3.574219 8 8v.015625c4.425782 0 8 3.570313 8 7.992187 0 4.417969-3.574218 7.992188-8 7.992188zm0 0"/><path d="m304 496c-4.425781 0-8-3.574219-8-8s3.574219-8 8-8h.015625c0-4.425781 3.570313-8 7.992187-8 4.417969 0 7.992188 3.574219 7.992188 8 0 8.824219-7.175781 16-16 16zm0 0"/><path d="m312 488c-4.425781 0-8-3.574219-8-8v-71.984375c0-4.421875 3.574219-8 8-8s8 3.578125 8 8v71.984375c0 4.425781-3.574219 8-8 8zm0 0"/><path d="m304 496h-287.992188c-4.421874 0-8-3.574219-8-8s3.578126-8 8-8h287.992188c4.425781 0 8 3.574219 8 8s-3.574219 8-8 8zm0 0"/><path d="m112 352c-4.425781 0-8-3.574219-8-8v-17.984375c0-4.421875 3.574219-8 8-8s8 3.578125 8 8v17.984375c0 4.425781-3.574219 8-8 8zm0 0"/><path d="m208 352c-4.425781 0-8-3.574219-8-8v-17.984375c0-4.421875 3.574219-8 8-8s8 3.578125 8 8v17.984375c0 4.425781-3.574219 8-8 8zm0 0"/><path d="m160 344.007812c-70.574219 0-128-57.421874-128-128 0-4.421874 3.574219-8 8-8s8 3.578126 8 8c0 61.761719 50.238281 112 112 112s112-50.238281 112-112c0-4.421874 3.574219-8 8-8s8 3.578126 8 8c0 70.578126-57.425781 128-128 128zm0 0"/><path d="m40 224.007812c-4.425781 0-8-3.574218-8-8v-144.007812c0-4.425781 3.574219-8 8-8s8 3.574219 8 8v144.007812c0 4.425782-3.574219 8-8 8zm0 0"/><path d="m160.238281 400c-4.421875 0-8.039062-3.574219-8.039062-8s3.535156-8 7.953125-8h.085937c4.417969 0 8 3.574219 8 8s-3.582031 8-8 8zm0 0"/><path d="m160.238281 432c-4.421875 0-8.039062-3.574219-8.039062-8s3.535156-8 7.953125-8h.085937c4.417969 0 8 3.574219 8 8s-3.582031 8-8 8zm0 0"/><path d="m304 160c-4.425781 0-8-3.574219-8-8 0-74.992188-61.007812-136-136-136-4.425781 0-8-3.574219-8-8s3.574219-8 8-8c83.816406 0 152 68.183594 152 152 0 4.425781-3.574219 8-8 8zm0 0"/><path d="m80.007812 40.246094c-2.574218 0-5.121093-1.238282-6.65625-3.550782-2.464843-3.671874-1.480468-8.640624 2.199219-11.09375 25.023438-16.753906 54.234375-25.601562 84.449219-25.601562 4.425781 0 8 3.574219 8 8s-3.574219 8-8 8c-27.039062 0-53.167969 7.921875-75.550781 22.894531-1.359375.921875-2.914063 1.351563-4.441407 1.351563zm0 0"/><path d="m304 288c-4.425781 0-8-3.574219-8-8v-128c0-4.425781 3.574219-8 8-8s8 3.574219 8 8v128c0 4.425781-3.574219 8-8 8zm0 0"/><path d="m304 288c-4.425781 0-8-3.574219-8-8 0-99.175781-95.710938-120-176-120-4.425781 0-8-3.574219-8-8s3.574219-8 8-8c123.816406 0 192 48.296875 192 136 0 4.425781-3.574219 8-8 8zm0 0"/><path d="m280 224.007812c-4.425781 0-8-3.574218-8-8v-10.078124c0-4.425782 3.574219-8 8-8s8 3.574218 8 8v10.078124c0 4.425782-3.574219 8-8 8zm0 0"/><path d="m80 120c-4.425781 0-8-3.574219-8-8v-79.753906c0-4.421875 3.574219-8 8-8s8 3.578125 8 8v79.753906c0 4.425781-3.574219 8-8 8zm0 0"/><path d="m40 160c-4.425781 0-8-3.574219-8-8s3.574219-8 8-8c17.648438 0 32-14.351562 32-32 0-4.425781 3.574219-8 8-8s8 3.574219 8 8c0 26.472656-21.527344 48-48 48zm0 0"/><path d="m120 160c-26.472656 0-48-21.527344-48-48 0-4.425781 3.574219-8 8-8s8 3.574219 8 8c0 17.648438 14.351562 32 32 32 4.425781 0 8 3.574219 8 8s-3.574219 8-8 8zm0 0"/><path d="m40 80c-4.425781 0-8-3.574219-8-8 0-26.472656 21.527344-48 48-48 4.425781 0 8 3.574219 8 8s-3.574219 8-8 8c-17.648438 0-32 14.351562-32 32 0 4.425781-3.574219 8-8 8zm0 0"/><path d="m124.464844 384.015625c-3.058594 0-5.96875-1.75-7.304688-4.710937-1.816406-4.03125-.015625-8.769532 4.007813-10.585938l35.542969-16.015625c4.050781-1.816406 8.777343-.015625 10.585937 4.007813 1.816406 4.03125.015625 8.769531-4.007813 10.585937l-35.546874 16.015625c-1.070313.480469-2.191407.703125-3.277344.703125zm0 0"/><path d="m195.542969 384c-1.09375 0-2.207031-.222656-3.269531-.703125l-35.554688-16c-4.03125-1.816406-5.832031-6.542969-4.015625-10.578125 1.824219-4.03125 6.5625-5.816406 10.578125-4.015625l35.550781 16c4.03125 1.816406 5.832031 6.542969 4.015625 10.578125-1.335937 2.964844-4.246094 4.71875-7.304687 4.71875zm0 0"/><path d="m80 384.015625c-2.046875 0-4.097656-.785156-5.65625-2.34375-3.128906-3.128906-3.128906-8.183594 0-11.3125l32-32.015625c3.128906-3.128906 8.183594-3.128906 11.3125 0s3.128906 8.183594 0 11.3125l-32 32.015625c-1.558594 1.558594-3.609375 2.34375-5.65625 2.34375zm0 0"/><path d="m104.007812 416c-2.433593 0-4.832031-1.105469-6.40625-3.191406l-24-31.984375c-2.648437-3.535157-1.9375-8.550781 1.589844-11.199219 3.550782-2.632812 8.5625-1.9375 11.199219 1.589844l24 31.984375c2.648437 3.535156 1.9375 8.554687-1.589844 11.199219-1.441406 1.082031-3.121093 1.601562-4.792969 1.601562zm0 0"/><path d="m88 432c-2.046875 0-4.097656-.785156-5.65625-2.34375-3.128906-3.128906-3.128906-8.183594 0-11.3125l16-16c3.128906-3.128906 8.183594-3.128906 11.3125 0s3.128906 8.183594 0 11.3125l-16 16c-1.558594 1.558594-3.609375 2.34375-5.65625 2.34375zm0 0"/><path d="m136.007812 496c-2.441406 0-4.832031-1.105469-6.40625-3.199219l-48-64c-2.65625-3.527343-1.9375-8.542969 1.597657-11.191406 3.527343-2.65625 8.535156-1.945313 11.191406 1.597656l48 64c2.65625 3.527344 1.9375 8.546875-1.597656 11.191407-1.433594 1.082031-3.113281 1.601562-4.785157 1.601562zm0 0"/><path d="m151.992188 496c-3.503907 0-6.71875-2.320312-7.703126-5.855469l-40-144c-1.175781-4.257812 1.3125-8.664062 5.566407-9.847656 4.25-1.167969 8.671875 1.3125 9.847656 5.566406l40 144c1.175781 4.257813-1.3125 8.664063-5.566406 9.847657-.710938.191406-1.433594.289062-2.144531.289062zm0 0"/><path d="m240 384.015625c-2.046875 0-4.097656-.785156-5.65625-2.34375l-32-32.015625c-3.128906-3.128906-3.128906-8.183594 0-11.3125s8.183594-3.128906 11.3125 0l32 32.015625c3.128906 3.128906 3.128906 8.183594 0 11.3125-1.558594 1.558594-3.609375 2.34375-5.65625 2.34375zm0 0"/><path d="m215.992188 416c-1.671876 0-3.351563-.519531-4.800782-1.601562-3.527344-2.644532-4.238281-7.664063-1.589844-11.199219l24-31.984375c2.644532-3.535156 7.65625-4.230469 11.199219-1.589844 3.527344 2.648438 4.238281 7.664062 1.589844 11.199219l-24 31.984375c-1.558594 2.085937-3.964844 3.191406-6.398437 3.191406zm0 0"/><path d="m232 432c-2.046875 0-4.097656-.785156-5.65625-2.34375l-16-16c-3.128906-3.128906-3.128906-8.183594 0-11.3125s8.183594-3.128906 11.3125 0l16 16c3.128906 3.128906 3.128906 8.183594 0 11.3125-1.558594 1.558594-3.609375 2.34375-5.65625 2.34375zm0 0"/><path d="m183.992188 496c-1.671876 0-3.351563-.519531-4.792969-1.601562-3.535157-2.644532-4.253907-7.664063-1.597657-11.191407l48-64c2.65625-3.535156 7.664063-4.246093 11.191407-1.597656 3.535156 2.648437 4.253906 7.664063 1.597656 11.191406l-48 64c-1.558594 2.09375-3.957031 3.199219-6.398437 3.199219zm0 0"/><path d="m168.007812 496c-.710937 0-1.433593-.097656-2.152343-.289062-4.253907-1.183594-6.75-5.589844-5.566407-9.847657l40-144c1.183594-4.253906 5.597657-6.734375 9.847657-5.566406 4.253906 1.183594 6.75 5.589844 5.566406 9.847656l-40 144c-.976563 3.535157-4.199219 5.855469-7.695313 5.855469zm0 0"/><path d="m504 223.992188h-160c-4.425781 0-8-3.578126-8-8v-32c0-4.425782 3.574219-8 8-8h160c4.425781 0 8 3.574218 8 8v32c0 4.421874-3.574219 8-8 8zm-152-16h144v-16h-144zm0 0"/><path d="m504 287.992188h-160c-4.425781 0-8-3.578126-8-8v-32c0-4.425782 3.574219-8 8-8h160c4.425781 0 8 3.574218 8 8v32c0 4.421874-3.574219 8-8 8zm-152-16h144v-16h-144zm0 0"/><path d="m504 351.992188h-160c-4.425781 0-8-3.578126-8-8v-32c0-4.425782 3.574219-8 8-8h160c4.425781 0 8 3.574218 8 8v32c0 4.421874-3.574219 8-8 8zm-152-16h144v-16h-144zm0 0"/><path d="m448 223.992188c-2.046875 0-4.097656-.785157-5.65625-2.34375-3.128906-3.128907-3.128906-8.183594 0-11.3125l32-32c3.128906-3.128907 8.183594-3.128907 11.3125 0 3.128906 3.128906 3.128906 8.183593 0 11.3125l-32 32c-1.558594 1.558593-3.609375 2.34375-5.65625 2.34375zm0 0"/><path d="m392 287.992188c-2.046875 0-4.097656-.785157-5.65625-2.34375-3.128906-3.128907-3.128906-8.183594 0-11.3125l32-32c3.128906-3.128907 8.183594-3.128907 11.3125 0 3.128906 3.128906 3.128906 8.183593 0 11.3125l-32 32c-1.558594 1.558593-3.609375 2.34375-5.65625 2.34375zm0 0"/><path d="m424 351.992188c-2.046875 0-4.097656-.785157-5.65625-2.34375-3.128906-3.128907-3.128906-8.183594 0-11.3125l32-32c3.128906-3.128907 8.183594-3.128907 11.3125 0 3.128906 3.128906 3.128906 8.183593 0 11.3125l-32 32c-1.558594 1.558593-3.609375 2.34375-5.65625 2.34375zm0 0"/><path d="m504 159.992188h-160c-4.425781 0-8-3.578126-8-8v-32c0-4.425782 3.574219-8 8-8h160c4.425781 0 8 3.574218 8 8v32c0 4.421874-3.574219 8-8 8zm-152-16h144v-16h-144zm0 0"/><path d="m408 159.992188c-2.046875 0-4.097656-.785157-5.65625-2.34375-3.128906-3.128907-3.128906-8.183594 0-11.3125l32-32c3.128906-3.128907 8.183594-3.128907 11.3125 0 3.128906 3.128906 3.128906 8.183593 0 11.3125l-32 32c-1.558594 1.558593-3.609375 2.34375-5.65625 2.34375zm0 0"/></svg>