<svg height="512pt" viewBox="-3 0 511 512" width="512pt" xmlns="http://www.w3.org/2000/svg"><path d="m48.503906 408v40l-40-40zm0 0" fill="#f5f7fa"/><path d="m120.503906 304v144h-72v-40h-40v-360h112zm0 0" fill="#e6e9ed"/><path d="m152.503906 456h280v24h-280zm0 0" fill="#f5f7fa"/><path d="m440.503906 456c13.277344 0 24-10.800781 24-24v48c0 13.199219-10.722656 24-24 24h-296c-13.28125 0-24-10.800781-24-24 0-13.28125 10.71875-24 24-24h8v24h280v-24zm0 0" fill="#f6bb42"/><path d="m496.503906 48v104l-32 32v-136zm0 0" fill="#f6bb42"/><path d="m176.503906 216h232v32h-232zm0 0" fill="#f5f7fa"/><path d="m464.503906 48v384c0 13.199219-10.722656 24-24 24h-296c-13.28125 0-24 10.71875-24 24v-448c0-13.28125 10.71875-24 24-24h296c13.277344 0 24 10.71875 24 24zm-56 200v-32h-232v32zm0 0" fill="#ffce54"/><path d="m144.503906 512c-17.648437 0-32-14.351562-32-32s14.351563-32 32-32c4.421875 0 8 3.574219 8 8s-3.578125 8-8 8c-8.824218 0-16 7.175781-16 16s7.175782 16 16 16c4.421875 0 8 3.574219 8 8s-3.578125 8-8 8zm0 0"/><path d="m440.503906 464h-296c-4.425781 0-8-3.574219-8-8s3.574219-8 8-8h296c4.421875 0 8 3.574219 8 8s-3.578125 8-8 8zm0 0"/><path d="m440.503906 512h-296c-4.425781 0-8-3.574219-8-8s3.574219-8 8-8h296c4.421875 0 8 3.574219 8 8s-3.578125 8-8 8zm0 0"/><path d="m440.503906 464c-4.425781 0-8-3.574219-8-8s3.574219-8 8-8c8.820313 0 16-7.175781 16-16 0-4.425781 3.574219-8 8-8 4.421875 0 8 3.574219 8 8 0 17.648438-14.355468 32-32 32zm0 0"/><path d="m464.503906 40c-4.425781 0-8-3.574219-8-8 0-8.824219-7.179687-16-16-16-4.425781 0-8-3.574219-8-8s3.574219-8 8-8c17.644532 0 32 14.351562 32 32 0 4.425781-3.578125 8-8 8zm0 0"/><path d="m120.503906 40c-4.425781 0-8-3.574219-8-8 0-17.648438 14.351563-32 32-32 4.421875 0 8 3.574219 8 8s-3.578125 8-8 8c-8.824218 0-16 7.175781-16 16 0 4.425781-3.578125 8-8 8zm0 0"/><path d="m440.503906 512c-4.425781 0-8-3.574219-8-8s3.574219-8 8-8c8.820313 0 16-7.175781 16-16 0-4.425781 3.574219-8 8-8 4.421875 0 8 3.574219 8 8 0 17.648438-14.355468 32-32 32zm0 0"/><path d="m464.503906 192c-2.050781 0-4.097656-.785156-5.65625-2.34375-3.128906-3.128906-3.128906-8.183594 0-11.3125l29.65625-29.65625v-92.6875h-24c-4.425781 0-8-3.574219-8-8s3.574219-8 8-8h32c4.421875 0 8 3.574219 8 8v104c0 2.128906-.84375 4.160156-2.347656 5.65625l-32 32c-1.558594 1.558594-3.605469 2.34375-5.652344 2.34375zm0 0"/><path d="m440.503906 16h-296c-4.425781 0-8-3.574219-8-8s3.574219-8 8-8h296c4.421875 0 8 3.574219 8 8s-3.578125 8-8 8zm0 0"/><path d="m120.503906 488c-4.425781 0-8-3.574219-8-8v-448c0-4.425781 3.574219-8 8-8 4.421875 0 8 3.574219 8 8v448c0 4.425781-3.578125 8-8 8zm0 0"/><path d="m432.503906 488h-280c-4.425781 0-8-3.574219-8-8s3.574219-8 8-8h280c4.421875 0 8 3.574219 8 8s-3.578125 8-8 8zm0 0"/><path d="m432.503906 488c-4.425781 0-8-3.574219-8-8v-24c0-4.425781 3.574219-8 8-8 4.421875 0 8 3.574219 8 8v24c0 4.425781-3.578125 8-8 8zm0 0"/><path d="m152.503906 488c-4.425781 0-8-3.574219-8-8v-24c0-4.425781 3.574219-8 8-8 4.421875 0 8 3.574219 8 8v24c0 4.425781-3.578125 8-8 8zm0 0"/><path d="m464.503906 488c-4.425781 0-8-3.574219-8-8v-448c0-4.425781 3.574219-8 8-8 4.421875 0 8 3.574219 8 8v448c0 4.425781-3.578125 8-8 8zm0 0"/><path d="m120.492188 56h-111.988282c-4.425781 0-8-3.574219-8-8s3.574219-8 8-8h111.988282c4.425781 0 8 3.574219 8 8s-3.574219 8-8 8zm0 0"/><path d="m120.492188 456h-71.988282c-4.425781 0-8-3.574219-8-8s3.574219-8 8-8h71.988282c4.425781 0 8 3.574219 8 8s-3.574219 8-8 8zm0 0"/><path d="m408.503906 255.992188h-232c-4.425781 0-8-3.578126-8-8v-32c0-4.425782 3.574219-8 8-8h232c4.421875 0 8 3.574218 8 8v32c0 4.421874-3.578125 8-8 8zm-224-16h216v-16h-216zm0 0"/><path d="m8.503906 416c-4.425781 0-8-3.574219-8-8v-360c0-4.425781 3.574219-8 8-8 4.421875 0 8 3.574219 8 8v360c0 4.425781-3.578125 8-8 8zm0 0"/><path d="m48.503906 456c-2.050781 0-4.097656-.785156-5.65625-2.34375l-40-40c-3.128906-3.128906-3.128906-8.183594 0-11.3125 3.125-3.128906 8.183594-3.128906 11.308594 0l40 40c3.128906 3.128906 3.128906 8.183594 0 11.3125-1.558594 1.558594-3.605469 2.34375-5.652344 2.34375zm0 0"/><path d="m48.503906 456c-4.425781 0-8-3.574219-8-8v-40c0-4.425781 3.574219-8 8-8 4.421875 0 8 3.574219 8 8v40c0 4.425781-3.578125 8-8 8zm0 0"/><path d="m48.503906 416h-40c-4.425781 0-8-3.574219-8-8s3.574219-8 8-8h40c4.421875 0 8 3.574219 8 8s-3.578125 8-8 8zm0 0"/><path d="m120.503906 168h-56c-4.425781 0-8-3.574219-8-8s3.574219-8 8-8h56c4.421875 0 8 3.574219 8 8s-3.578125 8-8 8zm0 0"/><path d="m120.503906 216h-56c-4.425781 0-8-3.574219-8-8s3.574219-8 8-8h56c4.421875 0 8 3.574219 8 8s-3.578125 8-8 8zm0 0"/><path d="m120.503906 264h-56c-4.425781 0-8-3.574219-8-8s3.574219-8 8-8h56c4.421875 0 8 3.574219 8 8s-3.578125 8-8 8zm0 0"/><path d="m120.503906 312h-56c-4.425781 0-8-3.574219-8-8s3.574219-8 8-8h56c4.421875 0 8 3.574219 8 8s-3.578125 8-8 8zm0 0"/></svg>